HIERARCHY
ROOT joint_Root
{
	OFFSET 0.0 0.0 0.0
	CHANNELS 6 Xposition Yposition Zposition Zrotation Xrotation Yrotation 
	JOINT Hips
	{
		OFFSET 4.5925 91.4895 -427.239
		CHANNELS 6 Xposition Yposition Zposition Zrotation Xrotation Yrotation 
		JOINT Spine
		{
			OFFSET 15.7357 0.0 0.0
			CHANNELS 6 Xposition Yposition Zposition Zrotation Xrotation Yrotation 
			JOINT Chest
			{
				OFFSET 8.98455 -0.406207 0.0
				CHANNELS 6 Xposition Yposition Zposition Zrotation Xrotation Yrotation 
				JOINT Neck
				{
					OFFSET 16.3773 0.0 0.0
					CHANNELS 6 Xposition Yposition Zposition Zrotation Xrotation Yrotation 
					JOINT Head
					{
						OFFSET 6.45672 0.0 0.0
						CHANNELS 6 Xposition Yposition Zposition Zrotation Xrotation Yrotation 
						End Site
						{
							OFFSET 0.0 0.0 0.0
						}
					}
				}
				JOINT Shoulder_L
				{
					OFFSET 12.9942 -0.242716 4.98039
					CHANNELS 6 Xposition Yposition Zposition Zrotation Xrotation Yrotation 
					JOINT UpperArm_L
					{
						OFFSET 5.34809 0.0 0.0
						CHANNELS 6 Xposition Yposition Zposition Zrotation Xrotation Yrotation 
						JOINT LowerArm_L
						{
							OFFSET 24.3286 1.87007e-05 0.0
							CHANNELS 6 Xposition Yposition Zposition Zrotation Xrotation Yrotation 
							JOINT Hand_L
							{
								OFFSET 22.2916 0.0 0.0
								CHANNELS 6 Xposition Yposition Zposition Zrotation Xrotation Yrotation 
								End Site
								{
									OFFSET 0.0 0.0 0.0
								}
							}
						}
					}
				}
				JOINT Shoulder_R
				{
					OFFSET 12.9945 -0.242716 -4.98039
					CHANNELS 6 Xposition Yposition Zposition Zrotation Xrotation Yrotation 
					JOINT UpperArm_R
					{
						OFFSET -5.34813 0.0 0.0
						CHANNELS 6 Xposition Yposition Zposition Zrotation Xrotation Yrotation 
						JOINT LowerArm_R
						{
							OFFSET -24.3289 0.000322201 0.0
							CHANNELS 6 Xposition Yposition Zposition Zrotation Xrotation Yrotation 
							JOINT Hand_R
							{
								OFFSET -22.2915 -0.000108084 0.0
								CHANNELS 6 Xposition Yposition Zposition Zrotation Xrotation Yrotation 
								End Site
								{
									OFFSET 0.0 0.0 0.0
								}
							}
						}
					}
				}
			}
		}
		JOINT UpperLeg_L
		{
			OFFSET -2.19248 -6.46944 0.0
			CHANNELS 6 Xposition Yposition Zposition Zrotation Xrotation Yrotation 
			JOINT LowerLeg_L
			{
				OFFSET 39.0811 0.0 -1.23785e-05
				CHANNELS 6 Xposition Yposition Zposition Zrotation Xrotation Yrotation 
				JOINT Foot_L
				{
					OFFSET 40.9854 0.0 -1.26872e-05
					CHANNELS 6 Xposition Yposition Zposition Zrotation Xrotation Yrotation 
					JOINT Toes_L
					{
						OFFSET 11.7543 0.0 0.0
						CHANNELS 6 Xposition Yposition Zposition Zrotation Xrotation Yrotation 
						End Site
						{
							OFFSET 0.0 0.0 0.0
						}
					}
				}
			}
		}
		JOINT UpperLeg_R
		{
			OFFSET -2.19251 6.46944 0.0
			CHANNELS 6 Xposition Yposition Zposition Zrotation Xrotation Yrotation 
			JOINT LowerLeg_R
			{
				OFFSET -39.0811 -0.00228153 -0.0401928
				CHANNELS 6 Xposition Yposition Zposition Zrotation Xrotation Yrotation 
				JOINT Foot_R
				{
					OFFSET -40.9854 0.0 0.0
					CHANNELS 6 Xposition Yposition Zposition Zrotation Xrotation Yrotation 
					JOINT Toes_R
					{
						OFFSET -11.7543 0.0 0.0
						CHANNELS 6 Xposition Yposition Zposition Zrotation Xrotation Yrotation 
						End Site
						{
							OFFSET 0.0 0.0 0.0
						}
					}
				}
			}
		}
	}
}
MOTION
Frames:	8
Frame Time:	0.0333333
0.000000 0.000000 0.000000 0.000000 0.000000 -0.000000 -0.485777 90.091300 -4.909850 89.146700 -2.995650 11.282900 15.735700 0.000005 -0.000001 89.239100 77.215700 -89.652600 8.984550 -0.406207 -0.000000 17.799400 -0.369467 -0.770578 16.377300 -0.000001 -0.000001 3.372020 -3.631590 1.551670 6.456720 -0.000001 -0.000000 -6.952860 -2.901550 1.728760 12.994200 -0.242716 4.980390 -91.113400 5.981720 -79.436000 5.348090 -0.000007 -0.000001 -57.527800 32.183000 -29.710400 24.328600 0.000019 0.000005 7.971760 19.289200 -22.973400 22.291600 -0.000001 0.000005 13.319500 5.177600 3.274420 12.994500 -0.242716 -4.980390 89.362400 10.299800 -86.438700 -5.348130 -0.000001 -0.000004 -60.423300 29.466900 -23.974900 -24.328900 0.000322 -0.000009 2.214130 5.242480 -22.945300 -22.291500 -0.000108 -0.000004 17.486400 5.381490 -2.345250 -2.192480 -6.469440 -0.000000 -174.831000 -11.598100 -5.030290 39.081100 -0.000007 -0.000012 -0.220024 0.303835 35.910800 40.985400 -0.000006 -0.000013 0.817393 5.159230 -69.486100 11.754300 -0.000000 0.000003 -0.000071 -0.000765 -16.607100 -2.192510 6.469440 -0.000001 175.859000 17.891500 176.477000 -39.081100 -0.002282 -0.040193 -0.171786 0.249674 35.039100 -40.985400 0.000008 0.000006 4.883360 12.511300 -70.469300 -11.754300 -0.000006 -0.000006 -0.002749 -0.037727 -18.107300
0.000000 0.000000 0.000000 0.000000 0.000000 -0.000000 -0.479309 90.088900 -4.897990 89.139600 -2.986900 11.331200 15.735700 0.000005 -0.000001 89.199200 77.190900 -89.607900 8.984550 -0.406207 -0.000000 17.848800 -0.387349 -0.758060 16.377300 -0.000001 -0.000001 3.310990 -3.629520 1.543190 6.456720 -0.000001 -0.000000 -6.939280 -2.878080 1.759120 12.994200 -0.242716 4.980390 -91.140100 6.089620 -79.375000 5.348090 -0.000007 -0.000001 -57.143900 31.819600 -29.771300 24.328600 0.000019 0.000005 8.373540 18.923700 -24.412200 22.291600 -0.000001 0.000005 12.904100 5.182110 3.163890 12.994500 -0.242716 -4.980390 89.335100 10.388300 -86.317300 -5.348130 -0.000001 -0.000004 -60.678300 28.126900 -23.667100 -24.328900 0.000322 -0.000009 2.400690 5.328480 -24.305700 -22.291500 -0.000108 -0.000004 17.825700 5.385150 -2.460650 -2.192480 -6.469440 -0.000000 -174.806000 -11.616100 -4.969610 39.081100 -0.000007 -0.000012 -0.220849 0.304858 35.921300 40.985400 -0.000006 -0.000013 0.826333 5.186990 -69.507000 11.754300 -0.000000 0.000003 -0.000079 -0.000837 -16.609800 -2.192510 6.469440 -0.000001 175.829000 17.913200 176.545000 -39.081100 -0.002282 -0.040193 -0.176151 0.256007 35.027700 -40.985400 0.000008 0.000006 4.790150 12.551100 -70.448800 -11.754300 -0.000006 -0.000006 -0.002639 -0.036453 -18.055500
0.000000 0.000000 0.000000 0.000000 0.000000 -0.000000 -0.472672 90.086800 -4.899430 89.136900 -3.002500 11.335500 15.735700 0.000005 -0.000001 89.192800 77.177700 -89.599500 8.984550 -0.406207 -0.000000 17.875100 -0.390427 -0.753477 16.377300 -0.000001 -0.000001 3.284510 -3.623220 1.511540 6.456720 -0.000001 -0.000000 -6.940090 -2.875640 1.783590 12.994200 -0.242716 4.980390 -91.173400 6.224790 -79.302700 5.348090 -0.000007 -0.000001 -56.790400 31.127800 -29.729500 24.328600 0.000019 0.000005 8.763360 18.172600 -26.302200 22.291600 -0.000001 0.000005 12.850100 5.186770 3.048820 12.994500 -0.242716 -4.980390 89.306800 10.446900 -86.182300 -5.348130 -0.000001 -0.000004 -61.012600 26.500500 -23.349200 -24.328900 0.000322 -0.000009 2.543870 5.236360 -25.968800 -22.291500 -0.000108 -0.000004 18.217900 5.388100 -2.554460 -2.192480 -6.469440 -0.000000 -174.806000 -11.627000 -4.966490 39.081100 -0.000007 -0.000012 -0.219847 0.303349 35.932400 40.985400 -0.000006 -0.000013 0.827630 5.169370 -69.516300 11.754300 -0.000000 0.000003 -0.000079 -0.000843 -16.610100 -2.192510 6.469440 -0.000001 175.828000 17.893400 176.544000 -39.081100 -0.002282 -0.040193 -0.175370 0.254739 35.044000 -40.985400 0.000008 0.000006 4.847690 12.545500 -70.474400 -11.754300 -0.000006 -0.000006 -0.002817 -0.038515 -18.139400
0.000000 0.000000 0.000000 0.000000 0.000000 -0.000000 -0.471780 90.091400 -4.909040 89.130600 -3.003590 11.311900 15.735700 0.000005 -0.000001 89.115800 77.177100 -89.519600 8.984550 -0.406207 -0.000000 17.875600 -0.424019 -0.742334 16.377300 -0.000001 -0.000001 3.282520 -3.621310 1.496160 6.456720 -0.000001 -0.000000 -6.911610 -2.868270 1.768420 12.994200 -0.242716 4.980390 -91.198800 6.317260 -79.232500 5.348090 -0.000007 -0.000001 -56.862900 29.747100 -29.463800 24.328600 0.000019 0.000005 9.362150 17.644200 -28.543600 22.291600 -0.000001 0.000005 13.000300 5.193980 2.870100 12.994500 -0.242716 -4.980390 89.286100 10.466700 -86.076100 -5.348130 -0.000001 -0.000004 -61.365200 24.667700 -23.102700 -24.328900 0.000322 -0.000009 2.664530 5.063610 -27.811800 -22.291500 -0.000108 -0.000004 18.598600 5.396180 -2.813610 -2.192480 -6.469440 -0.000000 -174.806000 -11.632100 -4.995720 39.081100 -0.000007 -0.000012 -0.219686 0.303290 35.917900 40.985400 -0.000006 -0.000013 0.832635 5.182970 -69.497000 11.754300 -0.000000 0.000003 -0.000073 -0.000787 -16.607900 -2.192510 6.469440 -0.000001 175.843000 17.931100 176.519000 -39.081100 -0.002282 -0.040193 -0.173582 0.252344 35.027500 -40.985400 0.000008 0.000006 4.882680 12.554900 -70.463900 -11.754300 -0.000006 -0.000006 -0.002779 -0.038079 -18.121600
0.000000 0.000000 0.000000 0.000000 0.000000 -0.000000 -0.471013 90.092000 -4.907420 89.118300 -3.043160 11.357200 15.735700 0.000005 -0.000001 89.147800 77.160000 -89.552500 8.984550 -0.406207 -0.000000 17.910000 -0.410677 -0.746255 16.377300 -0.000001 -0.000001 3.313310 -3.638700 1.503370 6.456720 -0.000001 -0.000000 -6.864860 -2.868320 1.748770 12.994200 -0.242716 4.980390 -91.223700 6.391440 -79.138200 5.348090 -0.000007 -0.000001 -57.062500 28.025700 -29.199400 24.328600 0.000019 0.000005 9.883410 16.827900 -31.041000 22.291600 -0.000001 0.000005 13.496700 5.186520 3.054680 12.994500 -0.242716 -4.980390 89.258800 10.484000 -85.933000 -5.348130 -0.000001 -0.000004 -61.544300 22.901900 -22.946600 -24.328900 0.000322 -0.000009 2.837560 4.929660 -29.986400 -22.291500 -0.000108 -0.000004 19.133700 5.401910 -2.999670 -2.192480 -6.469440 -0.000000 -174.769000 -11.681900 -4.938920 39.081100 -0.000007 -0.000012 -0.219547 0.303092 35.918400 40.985400 -0.000006 -0.000013 0.836531 5.203770 -69.503100 11.754300 -0.000000 0.000003 -0.000089 -0.000933 -16.613500 -2.192510 6.469440 -0.000001 175.851000 17.909400 176.565000 -39.081100 -0.002282 -0.040193 -0.170730 0.248333 35.021200 -40.985400 0.000008 0.000006 4.913560 12.565500 -70.465800 -11.754300 -0.000006 -0.000006 -0.002710 -0.037272 -18.088800
0.000000 0.000000 0.000000 0.000000 0.000000 -0.000000 -0.467056 90.095500 -4.927130 89.129600 -3.070670 11.334500 15.735700 0.000005 -0.000001 89.164600 77.164100 -89.575900 8.984550 -0.406207 -0.000000 17.902000 -0.403700 -0.760519 16.377300 -0.000001 -0.000001 3.341420 -3.653350 1.484000 6.456720 -0.000001 -0.000000 -6.830450 -2.890610 1.752700 12.994200 -0.242716 4.980390 -91.232200 6.398070 -79.075600 5.348090 -0.000007 -0.000001 -57.487800 25.895600 -29.048200 24.328600 0.000019 0.000005 10.540100 16.319700 -33.510300 22.291600 -0.000001 0.000005 14.022800 5.183910 3.119480 12.994500 -0.242716 -4.980390 89.229000 10.474100 -85.766400 -5.348130 -0.000001 -0.000004 -61.544700 21.276500 -22.991400 -24.328900 0.000322 -0.000009 3.066330 4.870030 -32.258800 -22.291500 -0.000108 -0.000004 19.610700 5.400230 -2.944360 -2.192480 -6.469440 -0.000000 -174.785000 -11.707500 -4.967980 39.081100 -0.000007 -0.000012 -0.219362 0.303037 35.900300 40.985400 -0.000006 -0.000013 0.835414 5.193630 -69.477800 11.754300 -0.000000 0.000003 -0.000082 -0.000869 -16.611000 -2.192510 6.469440 -0.000001 175.852000 17.880000 176.526000 -39.081100 -0.002282 -0.040193 -0.172819 0.251452 35.006500 -40.985400 0.000008 0.000006 4.850550 12.584100 -70.424100 -11.754300 -0.000006 -0.000006 -0.002877 -0.039203 -18.167400
0.000000 0.000000 0.000000 0.000000 0.000000 -0.000000 -0.459116 90.097100 -4.945530 89.136600 -3.060760 11.353600 15.735700 0.000005 -0.000001 89.114200 77.157100 -89.532400 8.984550 -0.406207 -0.000000 17.915600 -0.426748 -0.770727 16.377300 -0.000001 -0.000001 3.362360 -3.634060 1.462350 6.456720 -0.000001 -0.000000 -6.789530 -2.850980 1.759750 12.994200 -0.242716 4.980390 -91.244900 6.415200 -78.994100 5.348090 -0.000007 -0.000001 -57.903000 23.544700 -28.987700 24.328600 0.000019 0.000005 11.284500 15.814000 -36.211400 22.291600 -0.000001 0.000005 14.438800 5.183530 3.128320 12.994500 -0.242716 -4.980390 89.200300 10.472300 -85.608700 -5.348130 -0.000001 -0.000004 -61.505300 19.511400 -23.161500 -24.328900 0.000322 -0.000009 3.493800 5.067360 -34.660700 -22.291500 -0.000108 -0.000004 20.100700 5.403750 -3.059020 -2.192480 -6.469440 -0.000000 -174.803000 -11.687300 -4.957890 39.081100 -0.000007 -0.000012 -0.220149 0.304215 35.892200 40.985400 -0.000006 -0.000013 0.840028 5.177280 -69.463800 11.754300 -0.000000 0.000003 -0.000075 -0.000801 -16.608500 -2.192510 6.469440 -0.000001 175.816000 17.927800 176.545000 -39.081100 -0.002282 -0.040193 -0.173586 0.252612 34.999500 -40.985400 0.000008 0.000006 4.829150 12.632500 -70.407600 -11.754300 -0.000006 -0.000006 -0.002873 -0.039155 -18.165400
0.000000 0.000000 0.000000 0.000000 0.000000 -0.000000 -0.460320 90.102500 -4.971530 89.131400 -3.065650 11.355500 15.735700 0.000005 -0.000001 89.032900 77.155500 -89.457600 8.984550 -0.406207 -0.000000 17.918100 -0.463167 -0.778138 16.377300 -0.000001 -0.000001 3.388370 -3.604470 1.421100 6.456720 -0.000001 -0.000000 -6.817090 -2.794430 1.760110 12.994200 -0.242716 4.980390 -91.243300 6.352820 -78.903300 5.348090 -0.000007 -0.000001 -58.273400 21.194700 -29.166500 24.328600 0.000019 0.000005 12.249000 15.617100 -38.884400 22.291600 -0.000001 0.000005 15.013600 5.176350 3.305120 12.994500 -0.242716 -4.980390 89.175600 10.469500 -85.472100 -5.348130 -0.000001 -0.000004 -61.446600 17.690000 -23.472400 -24.328900 0.000322 -0.000009 4.069250 5.383400 -37.177500 -22.291500 -0.000108 -0.000004 20.738900 5.406500 -3.150520 -2.192480 -6.469440 -0.000000 -174.800000 -11.697000 -4.964800 39.081100 -0.000007 -0.000012 -0.218603 0.302291 35.873100 40.985400 -0.000006 -0.000013 0.844590 5.187960 -69.436000 11.754300 -0.000000 0.000003 -0.000075 -0.000800 -16.608400 -2.192510 6.469440 -0.000001 175.843000 17.947600 176.530000 -39.081100 -0.002282 -0.040193 -0.167339 0.243768 34.990900 -40.985400 0.000008 0.000006 4.921890 12.598700 -70.404500 -11.754300 -0.000006 -0.000006 -0.002896 -0.039416 -18.176100
